<svg id="Capa_1" enable-background="new 0 0 502 502" height="512" viewBox="0 0 502 502" width="512" xmlns="http://www.w3.org/2000/svg" xmlns:xlink="http://www.w3.org/1999/xlink"><linearGradient id="lg1"><stop offset=".0223" stop-color="#f9f2ab"/><stop offset=".9994" stop-color="#f6e66a"/></linearGradient><linearGradient id="SVGID_1_" gradientUnits="userSpaceOnUse" x1="97.434" x2="97.434" xlink:href="#lg1" y1="2.202" y2="62.739"/><linearGradient id="SVGID_2_" gradientUnits="userSpaceOnUse" x1="237.284" x2="237.284" y1="-11.077" y2="265.384"><stop offset="0" stop-color="#d0d7d7"/><stop offset="1" stop-color="#efefef"/></linearGradient><linearGradient id="SVGID_3_" gradientUnits="userSpaceOnUse" x1="217.663" x2="217.663" xlink:href="#lg1" y1="45.308" y2="101.559"/><linearGradient id="lg2"><stop offset="0" stop-color="#4f4c5f"/><stop offset=".9783" stop-color="#6a647f"/></linearGradient><linearGradient id="SVGID_4_" gradientUnits="userSpaceOnUse" x1="100.957" x2="100.957" xlink:href="#lg2" y1="298.742" y2="145.902"/><linearGradient id="SVGID_5_" gradientUnits="userSpaceOnUse" x1="332.284" x2="332.284" xlink:href="#lg2" y1="298.742" y2="145.902"/><linearGradient id="SVGID_6_" gradientUnits="userSpaceOnUse" x1="137.453" x2="356.32" y1="140.457" y2="140.457"><stop offset="0" stop-color="#d86743"/><stop offset=".9788" stop-color="#e99780"/></linearGradient><linearGradient id="lg3"><stop offset="0" stop-color="#fbba99"/><stop offset="1" stop-color="#fbcfb9"/></linearGradient><linearGradient id="SVGID_7_" gradientUnits="userSpaceOnUse" x1="149.184" x2="208.521" xlink:href="#lg3" y1="193.241" y2="193.241"/><linearGradient id="lg4"><stop offset=".0212" stop-color="#ffb3dd"/><stop offset="1" stop-color="#ff88ca"/></linearGradient><linearGradient id="SVGID_8_" gradientUnits="userSpaceOnUse" x1="0" x2="474.567" xlink:href="#lg4" y1="375.166" y2="375.166"/><linearGradient id="SVGID_9_" gradientUnits="userSpaceOnUse" x1="226.757" x2="335.718" xlink:href="#lg4" y1="270.741" y2="270.741"/><linearGradient id="SVGID_10_" gradientUnits="userSpaceOnUse" x1="178.852" x2="362.232" xlink:href="#lg3" y1="205.902" y2="205.902"/><linearGradient id="lg5"><stop offset=".0223" stop-color="#c3c1c7"/><stop offset="1" stop-color="#8f8a9f"/></linearGradient><linearGradient id="SVGID_11_" gradientUnits="userSpaceOnUse" x1="476.536" x2="476.536" xlink:href="#lg5" y1="370.994" y2="431.776"/><linearGradient id="SVGID_12_" gradientUnits="userSpaceOnUse" x1=".003" x2="42.602" xlink:href="#lg1" y1="367.925" y2="367.925"/><linearGradient id="SVGID_13_" gradientUnits="userSpaceOnUse" x1="303.003" x2="425.584" xlink:href="#lg2" y1="438.508" y2="438.508"/><linearGradient id="SVGID_14_" gradientUnits="userSpaceOnUse" x1="364.294" x2="364.294" xlink:href="#lg5" y1="411.277" y2="465.739"/><linearGradient id="SVGID_15_" gradientUnits="userSpaceOnUse" x1="76.163" x2="198.744" xlink:href="#lg2" y1="438.508" y2="438.508"/><linearGradient id="SVGID_16_" gradientUnits="userSpaceOnUse" x1="137.453" x2="137.453" xlink:href="#lg5" y1="411.277" y2="465.739"/><linearGradient id="SVGID_17_" gradientUnits="userSpaceOnUse" x1="256.528" x2="256.528" xlink:href="#lg3" y1="356.26" y2="260.945"/><g><path d="m87.106 2.202c-4.615 0-8.356 3.741-8.356 8.356v39.677l37.369 12.505v-31.526c-.001-16.023-12.99-29.012-29.013-29.012z" fill="url(#SVGID_1_)"/><path d="m474.567 229.765v88.788l-267.34 31.341-207.227-31.342v-138.178c0-43.527 35.289-78.815 78.825-78.815l138.838-28.126 128.688 28.126c70.814 0 128.216 57.402 128.216 128.206z" fill="url(#SVGID_2_)"/><path d="m78.749 50.234 37.369 12.505v-31.525c0-3.859-.76-7.539-2.128-10.907h-35.241z" fill="#f0e02c"/><path d="m398.502 45.308h-361.677c-8.573 0-15.523 6.95-15.523 15.522 0 22.494 18.235 40.729 40.729 40.729h311.264c22.494 0 40.729-18.235 40.729-40.729 0-8.573-6.95-15.522-15.522-15.522z" fill="url(#SVGID_3_)"/><path d="m139.012 298.742c15.077 0 27.3-12.223 27.3-27.3v-91.067c0-19.039-15.434-34.473-34.473-34.473h-61.764c-19.039 0-34.473 15.434-34.473 34.473v91.067c0 15.077 12.223 27.3 27.3 27.3z" fill="url(#SVGID_4_)"/><path d="m346.354 145.902h-77.533c-19.039 0-34.473 15.434-34.473 34.473v91.067c0 15.077 12.223 27.3 27.3 27.3h16.08v-8.57l39.241-2.956 18.749 11.525h60.9c18.559 0 33.603-15.044 33.603-33.603v-35.371c-.001-46.317-37.549-83.865-83.867-83.865z" fill="url(#SVGID_5_)"/><path d="m305.13 66.91h-86.501-31.473c-27.45 0-49.703 22.253-49.703 49.703 0 42.32 34.308 76.628 76.628 76.628h4.547v20.762h58.667l79.024-20.762v-58.262-16.879c0-28.271-22.918-51.19-51.189-51.19z" fill="url(#SVGID_6_)"/><g><path d="m320.043 109.072c-2.162 0-4.34-.698-6.172-2.137-2.518-1.979-5.54-3.024-8.741-3.024h-.624c-5.523 0-10-4.477-10-10s4.477-10 10-10h.624c7.616 0 15.108 2.592 21.098 7.298 4.343 3.412 5.097 9.699 1.684 14.041-1.972 2.511-4.906 3.822-7.869 3.822z" fill="#f5ccc2"/></g><g><path d="m270.793 103.91h-26.637c-5.523 0-10-4.477-10-10s4.477-10 10-10h26.637c5.523 0 10 4.477 10 10s-4.477 10-10 10z" fill="#f5ccc2"/></g><circle cx="178.852" cy="193.241" fill="url(#SVGID_7_)" r="29.669"/><path d="m474.567 318.552v113.227h-447.379c-15.008 0-27.188-12.18-27.188-27.188v-86.039z" fill="url(#SVGID_8_)"/><path d="m226.757 242.74h108.96v56.002h-108.96z" fill="url(#SVGID_9_)"/><path d="m308.837 127.108c-62.212 6.504-69.705 22.714-107.141 27.539-10.259 1.322-18.585 9.023-20.772 19.133-1.449 6.699-2.166 13.671-2.062 20.828.732 50.223 42.366 90.809 92.593 90.319 50.219-.49 90.777-41.351 90.777-91.686 0-16.162-4.182-31.347-11.522-44.532-8.315-14.937-24.871-23.379-41.873-21.601z" fill="url(#SVGID_10_)"/><path d="m485.511 370.994h-17.95c-9.107 0-16.489 7.382-16.489 16.489v44.293h34.438c9.107 0 16.489-7.382 16.489-16.489v-27.804c.001-9.106-7.381-16.489-16.488-16.489z" fill="url(#SVGID_11_)"/><path d="m20.835 334.466h-20.832v66.919h20.832c12.021 0 21.766-9.745 21.766-21.767v-23.386c.001-12.021-9.744-21.766-21.766-21.766z" fill="url(#SVGID_12_)"/><ellipse cx="207.227" cy="215.104" fill="#fd9bae" rx="10.916" ry="8.772"/><ellipse cx="335.682" cy="215.104" fill="#fd9bae" rx="10.916" ry="8.772"/><path d="m271.455 222.548c-4.712 0-9.423-1.575-13.354-4.725-3.646-2.921-4.234-8.245-1.313-11.891 2.921-3.647 8.245-4.234 11.891-1.313 1.635 1.31 3.918 1.31 5.553 0 3.645-2.921 8.969-2.333 11.891 1.313 2.921 3.646 2.333 8.97-1.313 11.891-3.932 3.151-8.644 4.725-13.355 4.725z" fill="#383842"/><path d="m247.538 192.013c-.724-11.069-9.94-19.907-21.029-20.192-12.214-.313-22.213 9.495-22.213 21.638 0 .616.026 1.227.077 1.83.308 3.661 4.28 5.843 7.563 4.193.686-.344 1.411-.655 2.152-.948l-.013-.008 12.682-8.983 11.05 8.983-.012.009c.74.292 1.463.602 2.147.946 3.321 1.667 7.28-.586 7.575-4.29.083-1.04.092-2.101.021-3.178z" fill="#fff"/><path d="m338.566 192.013c-.724-11.069-9.94-19.907-21.029-20.192-12.214-.313-22.213 9.495-22.213 21.638 0 .616.026 1.227.077 1.83.308 3.661 4.28 5.843 7.563 4.193.686-.344 1.41-.655 2.151-.948l-.012-.009 10.64-8.983 13.092 8.983-.014.008c.74.293 1.464.603 2.149.947 3.321 1.667 7.28-.586 7.575-4.29.082-1.039.091-2.1.021-3.177z" fill="#fff"/><path d="m225.941 196.358c4.331 0 8.385.791 11.866 2.168.666-1.556 1.034-3.267 1.034-5.067 0-7.125-5.776-12.9-12.9-12.9s-12.9 5.776-12.9 12.9c0 1.8.368 3.51 1.034 5.067 3.481-1.378 7.535-2.168 11.866-2.168z" fill="#383842"/><path d="m316.968 196.358c4.33 0 8.385.791 11.866 2.168.666-1.556 1.034-3.267 1.034-5.067 0-7.125-5.776-12.9-12.9-12.9-7.125 0-12.901 5.776-12.901 12.9 0 1.8.368 3.51 1.034 5.067 3.483-1.378 7.537-2.168 11.867-2.168z" fill="#383842"/><circle cx="364.293" cy="438.508" fill="url(#SVGID_13_)" r="61.29"/><circle cx="364.293" cy="438.508" fill="url(#SVGID_14_)" r="27.231"/><circle cx="137.453" cy="438.508" fill="url(#SVGID_15_)" r="61.29"/><circle cx="137.453" cy="438.508" fill="url(#SVGID_16_)" r="27.231"/><path d="m318.197 340.818c-3.015-3.015-6.861-5.06-11.046-5.873l-85.26-6.531c-5.314-.407-10.541 1.527-14.309 5.296-7.778 7.778-6.954 20.602 1.725 27.36 17.987 14.007 40.499 22.187 64.52 22.189h.009c8.991 0 17.988-1.168 26.741-3.473 4.717-1.242 9.137-3.049 13.207-5.328 12.264-6.868 14.353-23.7 4.413-33.64z" fill="#ff88ca"/><path d="m314.761 317.56c-4.158-15.789-20.328-25.218-36.117-21.06-10.114 2.663-20.508-3.399-23.172-13.513-4.158-15.789-20.328-25.218-36.117-21.06s-25.218 20.328-21.06 36.117c10.965 41.641 53.764 66.599 95.406 55.633 15.788-4.158 25.217-20.328 21.06-36.117z" fill="url(#SVGID_17_)"/></g></svg>