<svg id="Capa_1" enable-background="new 0 0 502 502" height="512" viewBox="0 0 502 502" width="512" xmlns="http://www.w3.org/2000/svg" xmlns:xlink="http://www.w3.org/1999/xlink"><linearGradient id="lg1"><stop offset="0" stop-color="#4f4c5f"/><stop offset=".9783" stop-color="#6a647f"/></linearGradient><linearGradient id="SVGID_1_" gradientUnits="userSpaceOnUse" x1="361.529" x2="361.529" xlink:href="#lg1" y1="502" y2="389.978"/><linearGradient id="SVGID_2_" gradientUnits="userSpaceOnUse" x1="140.471" x2="140.471" xlink:href="#lg1" y1="502" y2="389.978"/><linearGradient id="SVGID_3_" gradientUnits="userSpaceOnUse" x1="251" x2="251" xlink:href="#lg1" y1="476.114" y2="262.57"/><linearGradient id="lg2"><stop offset=".0005580357" stop-color="#f6e66a"/><stop offset=".9777" stop-color="#f9f2ab"/></linearGradient><linearGradient id="SVGID_4_" gradientUnits="userSpaceOnUse" x1="342.072" x2="342.072" xlink:href="#lg2" y1="239.41" y2="182.586"/><linearGradient id="SVGID_5_" gradientUnits="userSpaceOnUse" x1="159.296" x2="159.296" xlink:href="#lg2" y1="239.41" y2="182.586"/><linearGradient id="SVGID_6_" gradientUnits="userSpaceOnUse" x1="251" x2="251" y1="173.595" y2="0"><stop offset=".0212" stop-color="#f5385d"/><stop offset="1" stop-color="#ff889e"/></linearGradient><linearGradient id="SVGID_7_" gradientUnits="userSpaceOnUse" x1="338.608" x2="338.608" y1="173.595" y2="0"><stop offset=".0005580357" stop-color="#5bd6fd"/><stop offset=".9777" stop-color="#a4e6ff"/></linearGradient><linearGradient id="SVGID_8_" gradientUnits="userSpaceOnUse" x1="163.392" x2="163.392" y1="173.595" y2="0"><stop offset="0" stop-color="#00c4a2"/><stop offset=".9794" stop-color="#76e6d5"/></linearGradient><linearGradient id="SVGID_9_" gradientUnits="userSpaceOnUse" x1="200.938" x2="200.938" y1="0" y2="173.595"><stop offset=".0212" stop-color="#ffb3dd"/><stop offset="1" stop-color="#ff88ca"/></linearGradient><linearGradient id="SVGID_10_" gradientUnits="userSpaceOnUse" x1="301.062" x2="301.062" y1="173.595" y2="0"><stop offset=".0223" stop-color="#8b59c5"/><stop offset="1" stop-color="#a47cd1"/></linearGradient><linearGradient id="lg3"><stop offset=".0223" stop-color="#f9f2ab"/><stop offset=".9994" stop-color="#f6e66a"/></linearGradient><linearGradient id="SVGID_11_" gradientUnits="userSpaceOnUse" x1="251" x2="251" xlink:href="#lg3" y1="239.41" y2="182.586"/><linearGradient id="SVGID_12_" gradientUnits="userSpaceOnUse" x1="251" x2="251" xlink:href="#lg2" y1="182.586" y2="117.718"/><linearGradient id="SVGID_13_" gradientUnits="userSpaceOnUse" x1="159.296" x2="159.296" xlink:href="#lg2" y1="192.22" y2="154.969"/><linearGradient id="SVGID_14_" gradientUnits="userSpaceOnUse" x1="343.176" x2="343.176" xlink:href="#lg2" y1="192.22" y2="154.969"/><linearGradient id="SVGID_15_" gradientUnits="userSpaceOnUse" x1="251" x2="251" xlink:href="#lg3" y1="192.22" y2="154.969"/><linearGradient id="SVGID_16_" gradientUnits="userSpaceOnUse" x1="251" x2="251" y1="295.67" y2="229.471"><stop offset="0" stop-color="#8f8a9f"/><stop offset=".9777" stop-color="#c3c1c7"/></linearGradient><g><path d="m397.938 465.027-14.248-75.05-59.127 66.14 15.11 29.086c5.361 10.32 16.023 16.796 27.652 16.796 19.539.001 34.258-17.775 30.613-36.972z" fill="url(#SVGID_1_)"/><path d="m104.062 465.027 14.248-75.05 59.127 66.14-15.11 29.086c-5.361 10.321-16.022 16.797-27.652 16.797-19.539 0-34.258-17.776-30.613-36.973z" fill="url(#SVGID_2_)"/><path d="m390.868 427.789-7.178-37.812-59.127 66.14 11.514 22.165c21.764-12.61 40.486-29.906 54.791-50.493z" fill="#4f4c5f"/><path d="m165.923 478.283 11.514-22.165-59.127-66.14-7.178 37.811c14.305 20.586 33.026 37.882 54.791 50.494z" fill="#4f4c5f"/><path d="m105.779 295.67v35.223c0 80.204 65.018 145.221 145.221 145.221 80.204 0 145.221-65.018 145.221-145.221v-35.223l-145.221-33.1z" fill="url(#SVGID_3_)"/><g><path d="m268.843 456.399c-4.77 0-8.993-3.425-9.84-8.286-.948-5.441 2.695-10.62 8.136-11.568 2.564-.447 5.157-1.002 7.705-1.65 5.354-1.363 10.795 1.874 12.156 7.227 1.361 5.352-1.874 10.795-7.227 12.156-3.041.774-6.138 1.437-9.203 1.97-.579.102-1.157.151-1.727.151z" fill="#938ea3"/></g><g><path d="m305.933 442.149c-3.548 0-6.983-1.892-8.796-5.228-2.636-4.853-.84-10.924 4.013-13.561 4.077-2.215 8.05-4.729 11.808-7.474 4.46-3.257 10.716-2.281 13.973 2.179s2.281 10.717-2.179 13.973c-4.473 3.266-9.202 6.259-14.055 8.896-1.516.824-3.151 1.215-4.764 1.215z" fill="#938ea3"/></g><path d="m299.407 192.22 48.407-9.634 48.407 9.634v47.19h-96.814l-11.485-24.802z" fill="url(#SVGID_4_)"/><path d="m202.593 192.22-48.407-9.634-48.407 9.634v47.19h96.814l10.221-28.412z" fill="url(#SVGID_5_)"/><path d="m276.031 173.594h-50.062l-25.031-86.797 25.031-86.797h50.062l25.031 86.797z" fill="url(#SVGID_6_)"/><path d="m326.092 173.594h50.062v-173.594h-50.062l-25.03 86.797z" fill="url(#SVGID_7_)"/><path d="m175.908 173.594h-50.062v-173.594h50.062l25.03 86.797z" fill="url(#SVGID_8_)"/><path d="m175.908 0h50.062v173.594h-50.062z" fill="url(#SVGID_9_)"/><path d="m276.031 173.594h50.061v-173.594h-50.061z" fill="url(#SVGID_10_)"/><ellipse cx="157.854" cy="389.978" fill="#fd9bae" rx="15.831" ry="12.722"/><ellipse cx="344.146" cy="389.978" fill="#fd9bae" rx="15.831" ry="12.722"/><path d="m251 400.774c-6.833 0-13.666-2.284-19.367-6.852-5.288-4.236-6.141-11.957-1.904-17.245 4.236-5.289 11.958-6.14 17.245-1.904 2.371 1.899 5.682 1.899 8.053 0 5.286-4.236 13.008-3.384 17.245 1.904 4.236 5.288 3.384 13.009-1.904 17.245-5.702 4.568-12.535 6.852-19.368 6.852z" fill="#383842"/><path d="m216.315 356.49c-1.05-16.052-14.416-28.871-30.497-29.283-17.713-.454-32.215 13.77-32.215 31.38 0 .894.038 1.779.111 2.653.447 5.31 6.207 8.473 10.969 6.082.996-.5 2.048-.95 3.124-1.376l-.023-.011 17.209-13.028 17.209 13.028-.029.008c1.076.426 2.129.876 3.125 1.376 4.816 2.418 10.558-.849 10.986-6.221.12-1.508.133-3.047.031-4.608z" fill="#fff"/><path d="m184.993 362.79c6.28 0 12.16 1.147 17.209 3.145.966-2.257 1.5-4.738 1.5-7.348 0-10.333-8.376-18.709-18.709-18.709s-18.709 8.376-18.709 18.709c0 2.61.534 5.091 1.5 7.348 5.049-1.998 10.929-3.145 17.209-3.145z" fill="#383842"/><path d="m299.407 192.22-48.407-9.634-48.407 9.634v47.19h96.814z" fill="url(#SVGID_11_)"/><path d="m279.34 117.718h-56.68c-11.083 0-20.067 8.985-20.067 20.068v17.184l48.407 27.616 48.407-27.617v-17.184c0-11.083-8.984-20.067-20.067-20.067z" fill="url(#SVGID_12_)"/><path d="m202.593 154.969h-76.747c-11.083 0-20.067 8.984-20.067 20.067v17.184h96.814l10.221-15.534z" fill="url(#SVGID_13_)"/><path d="m376.154 154.969h-76.747l-9.276 18.626 9.276 18.626h96.814v-17.184c0-11.084-8.984-20.068-20.067-20.068z" fill="url(#SVGID_14_)"/><path d="m202.593 154.969h96.814v37.251h-96.814z" fill="url(#SVGID_15_)"/><path d="m160.721 290.501-29.721-27.931-25.222 33.099v25h42.991c9.638 0 17.452-7.813 17.452-17.452 0-4.815-1.99-9.418-5.5-12.716z" fill="#4f4c5f"/><path d="m396.221 229.471h-290.442c-18.28 0-33.099 14.819-33.099 33.099 0 18.28 14.819 33.099 33.099 33.099h290.443c18.28 0 33.099-14.819 33.099-33.099 0-18.28-14.819-33.099-33.1-33.099z" fill="url(#SVGID_16_)"/><path d="m285.685 356.49c1.05-16.052 14.416-28.871 30.497-29.283 17.713-.454 32.215 13.77 32.215 31.38 0 .894-.038 1.779-.111 2.653-.447 5.31-6.207 8.473-10.969 6.082-.996-.5-2.048-.95-3.124-1.376l.023-.011-17.209-13.028-17.209 13.028.029.008c-1.076.426-2.129.876-3.125 1.376-4.816 2.418-10.558-.849-10.986-6.221-.12-1.508-.133-3.047-.031-4.608z" fill="#fff"/><path d="m317.007 362.79c-6.28 0-12.16 1.147-17.209 3.145-.966-2.257-1.5-4.738-1.5-7.348 0-10.333 8.376-18.709 18.709-18.709s18.709 8.376 18.709 18.709c0 2.61-.534 5.091-1.5 7.348-5.049-1.998-10.929-3.145-17.209-3.145z" fill="#383842"/></g></svg>